<svg xmlns="http://www.w3.org/2000/svg" width="850" height="620" viewBox="0 0 850 620">
<rect width="100%" height="100%" fill="white"/>
<style>text{font-family:Arial, Helvetica, sans-serif; fill:#111827} .small{font-size:12px}.label{font-size:13px}.title{font-size:18px;font-weight:700}.subtitle{font-size:14px;fill:#374151}.tick{font-size:11px;fill:#374151}.note{font-size:12px;fill:#374151}</style>
<text x="40" y="35" class="title" text-anchor="start">DCC@4A vs DVO_success</text>
<text x="40" y="58" class="subtitle" text-anchor="start">Each point is a completed Work8 run. Color = APBS representation.</text>
<line x1="151.25" y1="90.00" x2="151.25" y2="535.00" stroke="#E5E7EB" stroke-width="1"/>
<text x="151.25000000000009" y="555" class="tick" text-anchor="middle">0.46</text>
<line x1="376.25" y1="90.00" x2="376.25" y2="535.00" stroke="#E5E7EB" stroke-width="1"/>
<text x="376.2500000000001" y="555" class="tick" text-anchor="middle">0.50</text>
<line x1="601.25" y1="90.00" x2="601.25" y2="535.00" stroke="#E5E7EB" stroke-width="1"/>
<text x="601.2500000000005" y="555" class="tick" text-anchor="middle">0.54</text>
<line x1="95.00" y1="485.56" x2="770.00" y2="485.56" stroke="#E5E7EB" stroke-width="1"/>
<text x="87" y="489.55555555555554" class="tick" text-anchor="end">0.48</text>
<line x1="95.00" y1="287.78" x2="770.00" y2="287.78" stroke="#E5E7EB" stroke-width="1"/>
<text x="87" y="291.77777777777777" class="tick" text-anchor="end">0.52</text>
<line x1="95.00" y1="90.00" x2="770.00" y2="90.00" stroke="#E5E7EB" stroke-width="1"/>
<text x="87" y="94.0" class="tick" text-anchor="end">0.56</text>
<line x1="95.00" y1="535.00" x2="770.00" y2="535.00" stroke="#374151" stroke-width="1.2"/>
<line x1="95.00" y1="90.00" x2="95.00" y2="535.00" stroke="#374151" stroke-width="1.2"/>
<circle cx="688.75" cy="427.76" r="6.80" fill="#F58518" stroke="white" stroke-width="1" opacity="0.85"/>
<circle cx="532.50" cy="280.55" r="6.15" fill="#54A24B" stroke="white" stroke-width="1" opacity="0.85"/>
<circle cx="376.25" cy="495.56" r="5.51" fill="#4C78A8" stroke="white" stroke-width="1" opacity="0.85"/>
<circle cx="688.75" cy="211.49" r="6.80" fill="#F58518" stroke="white" stroke-width="1" opacity="0.85"/>
<circle cx="532.50" cy="226.11" r="7.45" fill="#4C78A8" stroke="white" stroke-width="1" opacity="0.85"/>
<circle cx="376.25" cy="240.42" r="6.48" fill="#54A24B" stroke="white" stroke-width="1" opacity="0.85"/>
<circle cx="584.58" cy="133.15" r="7.77" fill="#F58518" stroke="white" stroke-width="1" opacity="0.85"/>
<circle cx="532.50" cy="195.27" r="8.10" fill="#54A24B" stroke="white" stroke-width="1" opacity="0.85"/>
<circle cx="428.33" cy="213.15" r="7.77" fill="#4C78A8" stroke="white" stroke-width="1" opacity="0.85"/>
<circle cx="584.58" cy="389.56" r="7.45" fill="#F58518" stroke="white" stroke-width="1" opacity="0.85"/>
<circle cx="532.50" cy="298.52" r="6.48" fill="#4C78A8" stroke="white" stroke-width="1" opacity="0.85"/>
<circle cx="272.08" cy="341.28" r="5.00" fill="#54A24B" stroke="white" stroke-width="1" opacity="0.85"/>
<circle cx="376.25" cy="235.90" r="7.77" fill="#54A24B" stroke="white" stroke-width="1" opacity="0.85"/>
<circle cx="532.50" cy="474.26" r="7.77" fill="#F58518" stroke="white" stroke-width="1" opacity="0.85"/>
<circle cx="220.00" cy="296.84" r="6.15" fill="#4C78A8" stroke="white" stroke-width="1" opacity="0.85"/>
<circle cx="688.75" cy="352.92" r="6.80" fill="#F58518" stroke="white" stroke-width="1" opacity="0.85"/>
<circle cx="584.58" cy="429.13" r="5.51" fill="#54A24B" stroke="white" stroke-width="1" opacity="0.85"/>
<circle cx="220.00" cy="159.55" r="5.83" fill="#4C78A8" stroke="white" stroke-width="1" opacity="0.85"/>
<circle cx="428.33" cy="182.60" r="6.15" fill="#4C78A8" stroke="white" stroke-width="1" opacity="0.85"/>
<circle cx="272.08" cy="273.07" r="6.48" fill="#F58518" stroke="white" stroke-width="1" opacity="0.85"/>
<circle cx="324.17" cy="441.17" r="6.48" fill="#54A24B" stroke="white" stroke-width="1" opacity="0.85"/>
<text x="696.7500000000003" y="206.49423310647035" class="tick" text-anchor="start">UNet++</text>
<text x="592.5833333333337" y="128.151660774098" class="tick" text-anchor="start">UNet++</text>
<text x="540.5000000000002" y="190.2729660666306" class="tick" text-anchor="start">UNet++</text>
<text x="540.5000000000002" y="221.11469440853153" class="tick" text-anchor="start">UNet++</text>
<text x="696.7500000000003" y="422.76118499718064" class="tick" text-anchor="start">CBAM</text>
<text x="432.5" y="585" class="label" text-anchor="middle">DCC@4A</text>
<text x="24" y="312.5" class="label" text-anchor="middle" transform="rotate(-90 24 312.5)">DVO_success</text>
<circle cx="570.00" cy="90.00" r="7.00" fill="#4C78A8" stroke="white" stroke-width="1" opacity="0.85"/>
<text x="585" y="94" class="small" text-anchor="start">clip20 minmax</text>
<circle cx="570.00" cy="114.00" r="7.00" fill="#F58518" stroke="white" stroke-width="1" opacity="0.85"/>
<text x="585" y="118" class="small" text-anchor="start">full signed</text>
<circle cx="570.00" cy="138.00" r="7.00" fill="#54A24B" stroke="white" stroke-width="1" opacity="0.85"/>
<text x="585" y="142" class="small" text-anchor="start">pos/neg clip20</text>
</svg>